<svg xmlns="http://www.w3.org/2000/svg" viewBox="0 0 120 120" width="120" height="120" fill="none">
  <defs>
    <!-- Background panel gradient -->
    <linearGradient id="d-bg" x1="0" y1="0" x2="0" y2="1">
      <stop offset="0%" stop-color="#0D1117"/>
      <stop offset="100%" stop-color="#080B0F"/>
    </linearGradient>

    <!-- Routing line gradient — accent trace -->
    <linearGradient id="d-route" x1="0" y1="0" x2="1" y2="1">
      <stop offset="0%" stop-color="#4A8FBF" stop-opacity="0.8"/>
      <stop offset="100%" stop-color="#4A8FBF" stop-opacity="0.2"/>
    </linearGradient>

    <!-- SLA bar fill gradient -->
    <linearGradient id="d-sla-warn" x1="0" y1="0" x2="1" y2="0">
      <stop offset="0%" stop-color="#D68910" stop-opacity="0.7"/>
      <stop offset="100%" stop-color="#D68910" stop-opacity="0.3"/>
    </linearGradient>

    <linearGradient id="d-sla-ok" x1="0" y1="0" x2="1" y2="0">
      <stop offset="0%" stop-color="#1E8449" stop-opacity="0.7"/>
      <stop offset="100%" stop-color="#1E8449" stop-opacity="0.3"/>
    </linearGradient>

    <clipPath id="d-clip">
      <rect x="4" y="4" width="112" height="112"/>
    </clipPath>
  </defs>

  <!-- ── Outer frame ─────────────────────────────────────────── -->
  <rect x="4" y="4" width="112" height="112" fill="url(#d-bg)" stroke="#243040" stroke-width="1"/>

  <!-- Corner cut mark — top right -->
  <polyline points="96,4 112,4 112,20" stroke="#4A8FBF" stroke-width="1" opacity="0.6"/>
  <!-- Corner mark — bottom left -->
  <polyline points="24,116 4,116 4,100" stroke="#243040" stroke-width="1" opacity="0.5"/>

  <g clip-path="url(#d-clip)">

    <!-- ── Header bar ─────────────────────────────────────────── -->
    <rect x="4" y="4" width="112" height="14" fill="#0D1117"/>
    <line x1="4" y1="18" x2="116" y2="18" stroke="#243040" stroke-width="0.75"/>
    <!-- Status dot — pass -->
    <rect x="10" y="9" width="4" height="4" fill="#1E8449"/>
    <!-- Header labels -->
    <rect x="18" y="10" width="20" height="2" fill="#5A7184" opacity="0.6"/>
    <rect x="42" y="10" width="10" height="2" fill="#3A4F61" opacity="0.5"/>
    <!-- Right label -->
    <rect x="84" y="10" width="26" height="2" fill="#3A4F61" opacity="0.4"/>

    <!-- ── Column headers ─────────────────────────────────────── -->
    <rect x="4" y="18" width="112" height="11" fill="#131920"/>
    <line x1="4" y1="29" x2="116" y2="29" stroke="#1A2230" stroke-width="0.75"/>

    <!-- Column header text blocks -->
    <rect x="10" y="22" width="12" height="1.5" fill="#4A8FBF" opacity="0.5"/>
    <rect x="38" y="22" width="16" height="1.5" fill="#3A4F61" opacity="0.4"/>
    <rect x="66" y="22" width="10" height="1.5" fill="#3A4F61" opacity="0.4"/>
    <rect x="88" y="22" width="14" height="1.5" fill="#3A4F61" opacity="0.4"/>

    <!-- Column separators -->
    <line x1="34" y1="18" x2="34" y2="116" stroke="#1A2230" stroke-width="0.5"/>
    <line x1="64" y1="18" x2="64" y2="116" stroke="#1A2230" stroke-width="0.5"/>
    <line x1="84" y1="18" x2="84" y2="116" stroke="#1A2230" stroke-width="0.5"/>

    <!-- ── Ticket row 1 — CRITICAL, open ──────────────────────── -->
    <rect x="4" y="29" width="112" height="13" fill="#131920" opacity="0.4"/>
    <line x1="4" y1="42" x2="116" y2="42" stroke="#1A2230" stroke-width="0.5"/>

    <!-- Priority indicator — critical square -->
    <rect x="10" y="34" width="4" height="4" fill="#C0392B"/>
    <!-- Ticket ID block -->
    <rect x="17" y="34" width="10" height="2" fill="#5A7184" opacity="0.5"/>

    <!-- Summary text block -->
    <rect x="38" y="32" width="20" height="2" fill="#E8EDF2" opacity="0.55"/>
    <rect x="38" y="37" width="14" height="1.5" fill="#5A7184" opacity="0.35"/>

    <!-- Category badge — small rect -->
    <rect x="66" y="33" width="12" height="5" fill="none" stroke="#C0392B" stroke-width="0.75" opacity="0.7"/>
    <rect x="67" y="34.5" width="8" height="1.5" fill="#C0392B" opacity="0.4"/>

    <!-- SLA bar — overdue, red fill -->
    <rect x="87" y="33" width="22" height="5" fill="none" stroke="#243040" stroke-width="0.5"/>
    <rect x="87" y="33" width="22" height="5" fill="#C0392B" opacity="0.25"/>
    <rect x="87" y="33" width="22" height="5" fill="none" stroke="#C0392B" stroke-width="0.5" opacity="0.5"/>

    <!-- ── Ticket row 2 — WARNING, in progress ────────────────── -->
    <line x1="4" y1="55" x2="116" y2="55" stroke="#1A2230" stroke-width="0.5"/>
    <rect x="10" y="47" width="4" height="4" fill="#D68910"/>
    <rect x="17" y="47" width="10" height="2" fill="#5A7184" opacity="0.5"/>

    <rect x="38" y="45" width="22" height="2" fill="#E8EDF2" opacity="0.45"/>
    <rect x="38" y="50" width="16" height="1.5" fill="#5A7184" opacity="0.3"/>

    <rect x="66" y="46" width="12" height="5" fill="none" stroke="#D68910" stroke-width="0.75" opacity="0.6"/>
    <rect x="67" y="47.5" width="8" height="1.5" fill="#D68910" opacity="0.35"/>

    <!-- SLA bar — warning, partial fill -->
    <rect x="87" y="46" width="22" height="5" fill="none" stroke="#243040" stroke-width="0.5"/>
    <rect x="87" y="46" width="14" height="5" fill="url(#d-sla-warn)"/>

    <!-- ── Ticket row 3 — PASS, resolved ─────────────────────── -->
    <line x1="4" y1="68" x2="116" y2="68" stroke="#1A2230" stroke-width="0.5"/>
    <rect x="10" y="60" width="4" height="4" fill="#1E8449"/>
    <rect x="17" y="60" width="10" height="2" fill="#5A7184" opacity="0.5"/>

    <rect x="38" y="58" width="18" height="2" fill="#E8EDF2" opacity="0.35"/>
    <rect x="38" y="63" width="12" height="1.5" fill="#5A7184" opacity="0.25"/>

    <rect x="66" y="59" width="12" height="5" fill="none" stroke="#1E8449" stroke-width="0.75" opacity="0.5"/>
    <rect x="67" y="60.5" width="8" height="1.5" fill="#1E8449" opacity="0.3"/>

    <!-- SLA bar — resolved, full green -->
    <rect x="87" y="59" width="22" height="5" fill="none" stroke="#243040" stroke-width="0.5"/>
    <rect x="87" y="59" width="22" height="5" fill="url(#d-sla-ok)"/>

    <!-- ── Ticket row 4 — INFO ────────────────────────────────── -->
    <line x1="4" y1="81" x2="116" y2="81" stroke="#1A2230" stroke-width="0.5"/>
    <rect x="10" y="73" width="4" height="4" fill="#2471A3"/>
    <rect x="17" y="73" width="10" height="2" fill="#5A7184" opacity="0.5"/>

    <rect x="38" y="71" width="24" height="2" fill="#E8EDF2" opacity="0.3"/>
    <rect x="38" y="76" width="18" height="1.5" fill="#5A7184" opacity="0.22"/>

    <rect x="66" y="72" width="12" height="5" fill="none" stroke="#2471A3" stroke-width="0.75" opacity="0.5"/>
    <rect x="67" y="73.5" width="8" height="1.5" fill="#2471A3" opacity="0.3"/>

    <!-- SLA bar — info, half -->
    <rect x="87" y="72" width="22" height="5" fill="none" stroke="#243040" stroke-width="0.5"/>
    <rect x="87" y="72" width="10" height="5" fill="#2471A3" opacity="0.2"/>

    <!-- ── AI routing console — bottom panel ─────────────────── -->
    <rect x="4" y="81" width="112" height="35" fill="#0D1117"/>
    <line x1="4" y1="81" x2="116" y2="81" stroke="#243040" stroke-width="0.75"/>

    <!-- Console header label -->
    <rect x="10" y="85" width="20" height="2" fill="#4A8FBF" opacity="0.5"/>
    <!-- AI label accent line -->
    <line x1="10" y1="85" x2="10" y2="87" stroke="#4A8FBF" stroke-width="1.5" opacity="0.7"/>

    <!-- Routing diagram — three input nodes routing to two outputs -->

    <!-- Input nodes (tickets) -->
    <rect x="12" y="91" width="8" height="5" fill="none" stroke="#243040" stroke-width="0.75"/>
    <rect x="13" y="92.5" width="5" height="1.5" fill="#D68910" opacity="0.4"/>

    <rect x="12" y="100" width="8" height="5" fill="none" stroke="#243040" stroke-width="0.75"/>
    <rect x="13" y="101.5" width="5" height="1.5" fill="#4A8FBF" opacity="0.4"/>

    <rect x="12" y="109" width="8" height="5" fill="none" stroke="#243040" stroke-width="0.75"/>
    <rect x="13" y="110.5" width="5" height="1.5" fill="#5A7184" opacity="0.35"/>

    <!-- Routing lines — angular, 90-degree bends (mission control style) -->
    <!-- Input 1 → junction -->
    <polyline points="20,93.5 38,93.5 38,97" stroke="url(#d-route)" stroke-width="0.75" fill="none"/>
    <!-- Input 2 → junction -->
    <polyline points="20,102.5 38,102.5 38,97" stroke="url(#d-route)" stroke-width="0.75" fill="none"/>
    <!-- Input 3 → junction -->
    <polyline points="20,111.5 38,111.5 38,103" stroke="#243040" stroke-width="0.75" fill="none"/>

    <!-- Junction node — accent square -->
    <rect x="35.5" y="95" width="5" height="5" fill="none" stroke="#4A8FBF" stroke-width="0.75"/>
    <rect x="37" y="96.5" width="2" height="2" fill="#4A8FBF" opacity="0.8"/>

    <!-- Junction node 2 -->
    <rect x="35.5" y="101" width="5" height="5" fill="none" stroke="#243040" stroke-width="0.75"/>

    <!-- Output routing lines -->
    <!-- Junction 1 → Team A node -->
    <polyline points="40.5,97.5 56,97.5 56,93.5 70,93.5" stroke="#4A8FBF" stroke-width="0.75" fill="none" opacity="0.7"/>
    <!-- Junction 2 → Team B node -->
    <polyline points="40.5,103.5 56,103.5 56,109 70,109" stroke="#243040" stroke-width="0.75" fill="none"/>

    <!-- Output nodes — team queues -->
    <rect x="70" y="90" width="20" height="7" fill="none" stroke="#4A8FBF" stroke-width="0.75" opacity="0.7"/>
    <rect x="72" y="91.5" width="6" height="1.5" fill="#4A8FBF" opacity="0.4"/>
    <rect x="72" y="94" width="10" height="1.5" fill="#5A7184" opacity="0.3"/>

    <rect x="70" y="106" width="20" height="7" fill="none" stroke="#243040" stroke-width="0.75"/>
    <rect x="72" y="107.5" width="6" height="1.5" fill="#5A7184" opacity="0.3"/>
    <rect x="72" y="110" width="10" height="1.5" fill="#3A4F61" opacity="0.3"/>

    <!-- SLA micro-summary — far right column -->
    <rect x="96" y="85" width="16" height="3" fill="none" stroke="#1A2230" stroke-width="0.5"/>
    <rect x="96" y="85" width="12" height="3" fill="#1E8449" opacity="0.3"/>

    <rect x="96" y="90" width="16" height="3" fill="none" stroke="#1A2230" stroke-width="0.5"/>
    <rect x="96" y="90" width="7" height="3" fill="#D68910" opacity="0.3"/>

    <rect x="96" y="95" width="16" height="3" fill="none" stroke="#1A2230" stroke-width="0.5"/>
    <rect x="96" y="95" width="16" height="3" fill="#C0392B" opacity="0.15"/>

    <rect x="96" y="100" width="9" height="1.5" fill="#3A4F61" opacity="0.4"/>
    <rect x="96" y="103" width="12" height="1.5" fill="#3A4F61" opacity="0.3"/>

  </g>

</svg>
