<svg xmlns="http://www.w3.org/2000/svg" viewBox="0 0 120 120" width="120" height="120" fill="none">
  <defs>
    <!-- Background panel gradient -->
    <linearGradient id="l-bg" x1="0" y1="0" x2="0" y2="1">
      <stop offset="0%" stop-color="#0D1117"/>
      <stop offset="100%" stop-color="#080B0F"/>
    </linearGradient>

    <!-- Pipeline flow gradient — accent trace left to right -->
    <linearGradient id="l-flow" x1="0" y1="0" x2="1" y2="0">
      <stop offset="0%" stop-color="#4A8FBF" stop-opacity="0.9"/>
      <stop offset="100%" stop-color="#4A8FBF" stop-opacity="0.3"/>
    </linearGradient>

    <!-- Deployment success gradient -->
    <linearGradient id="l-deploy" x1="0" y1="0" x2="1" y2="0">
      <stop offset="0%" stop-color="#1E8449" stop-opacity="0.6"/>
      <stop offset="100%" stop-color="#1E8449" stop-opacity="0.15"/>
    </linearGradient>

    <clipPath id="l-clip">
      <rect x="4" y="4" width="112" height="112"/>
    </clipPath>
  </defs>

  <!-- ── Outer frame ─────────────────────────────────────────── -->
  <rect x="4" y="4" width="112" height="112" fill="url(#l-bg)" stroke="#243040" stroke-width="1"/>

  <!-- Corner cut mark — top right (accent) -->
  <polyline points="96,4 112,4 112,20" stroke="#4A8FBF" stroke-width="1" opacity="0.6"/>
  <!-- Corner mark — bottom left (dim) -->
  <polyline points="24,116 4,116 4,100" stroke="#243040" stroke-width="1" opacity="0.5"/>

  <g clip-path="url(#l-clip)">

    <!-- ── Header bar ─────────────────────────────────────────── -->
    <rect x="4" y="4" width="112" height="14" fill="#0D1117"/>
    <line x1="4" y1="18" x2="116" y2="18" stroke="#243040" stroke-width="0.75"/>
    <!-- Status dot — pass green -->
    <rect x="10" y="9" width="4" height="4" fill="#1E8449"/>
    <!-- Header labels -->
    <rect x="18" y="10" width="22" height="2" fill="#5A7184" opacity="0.6"/>
    <rect x="44" y="10" width="10" height="2" fill="#3A4F61" opacity="0.5"/>
    <!-- Right label -->
    <rect x="82" y="10" width="28" height="2" fill="#3A4F61" opacity="0.4"/>

    <!-- ── Branch topology — top section ─────────────────────── -->
    <!-- Main branch line (horizontal spine) -->
    <line x1="14" y1="36" x2="106" y2="36" stroke="#243040" stroke-width="1"/>

    <!-- Branch node — PR #1 (main, passing) -->
    <rect x="10" y="32" width="8" height="8" fill="none" stroke="#4A8FBF" stroke-width="0.75"/>
    <rect x="12" y="34" width="4" height="4" fill="#4A8FBF" opacity="0.7"/>

    <!-- Branch fork down — PR preview -->
    <line x1="30" y1="36" x2="30" y2="52" stroke="#4A8FBF" stroke-width="0.75" opacity="0.6"/>
    <rect x="26" y="32" width="8" height="8" fill="none" stroke="#243040" stroke-width="0.75"/>
    <rect x="28" y="34" width="4" height="4" fill="#5A7184" opacity="0.5"/>

    <!-- Branch fork down — PR preview 2 -->
    <line x1="50" y1="36" x2="50" y2="52" stroke="#D68910" stroke-width="0.75" opacity="0.5"/>
    <rect x="46" y="32" width="8" height="8" fill="none" stroke="#D68910" stroke-width="0.75" opacity="0.7"/>
    <rect x="48" y="34" width="4" height="4" fill="#D68910" opacity="0.4"/>

    <!-- Branch node — merged, deploy -->
    <rect x="66" y="32" width="8" height="8" fill="none" stroke="#4A8FBF" stroke-width="1"/>
    <rect x="68" y="34" width="4" height="4" fill="#4A8FBF" opacity="0.9"/>

    <!-- Arrow to deploy -->
    <polyline points="74,36 84,36" stroke="url(#l-flow)" stroke-width="1" fill="none"/>
    <polygon points="84,33 90,36 84,39" fill="#4A8FBF" opacity="0.7"/>

    <!-- Deploy target node -->
    <rect x="92" y="30" width="18" height="12" fill="none" stroke="#4A8FBF" stroke-width="0.75" opacity="0.8"/>
    <rect x="94" y="32" width="14" height="3" fill="#4A8FBF" opacity="0.2"/>
    <line x1="92" y1="35" x2="110" y2="35" stroke="#243040" stroke-width="0.5"/>
    <rect x="94" y="37" width="8" height="1.5" fill="#1E8449" opacity="0.5"/>
    <rect x="94" y="39.5" width="5" height="1.5" fill="#3A4F61" opacity="0.4"/>

    <!-- PR preview environments — child nodes -->
    <!-- Preview env 1 -->
    <rect x="22" y="52" width="16" height="10" fill="none" stroke="#4A8FBF" stroke-width="0.5" opacity="0.5"/>
    <rect x="24" y="54" width="10" height="1.5" fill="#4A8FBF" opacity="0.3"/>
    <rect x="24" y="57" width="6" height="1.5" fill="#1E8449" opacity="0.4"/>
    <rect x="31" y="57" width="5" height="1.5" fill="#3A4F61" opacity="0.3"/>

    <!-- Preview env 2 -->
    <rect x="42" y="52" width="16" height="10" fill="none" stroke="#D68910" stroke-width="0.5" opacity="0.5"/>
    <rect x="44" y="54" width="10" height="1.5" fill="#D68910" opacity="0.3"/>
    <rect x="44" y="57" width="6" height="1.5" fill="#D68910" opacity="0.4"/>
    <rect x="51" y="57" width="5" height="1.5" fill="#3A4F61" opacity="0.3"/>

    <!-- ── Pipeline stages — middle section ──────────────────── -->
    <line x1="4" y1="70" x2="116" y2="70" stroke="#1A2230" stroke-width="0.5"/>

    <!-- Stage labels row -->
    <rect x="4" y="70" width="112" height="10" fill="#131920"/>
    <line x1="4" y1="80" x2="116" y2="80" stroke="#1A2230" stroke-width="0.5"/>

    <!-- Stage column separators -->
    <line x1="32" y1="70" x2="32" y2="116" stroke="#1A2230" stroke-width="0.5"/>
    <line x1="64" y1="70" x2="64" y2="116" stroke="#1A2230" stroke-width="0.5"/>
    <line x1="96" y1="70" x2="96" y2="116" stroke="#1A2230" stroke-width="0.5"/>

    <!-- Stage header labels -->
    <rect x="8" y="73.5" width="14" height="1.5" fill="#4A8FBF" opacity="0.4"/>
    <rect x="36" y="73.5" width="16" height="1.5" fill="#3A4F61" opacity="0.4"/>
    <rect x="68" y="73.5" width="14" height="1.5" fill="#3A4F61" opacity="0.4"/>
    <rect x="100" y="73.5" width="12" height="1.5" fill="#3A4F61" opacity="0.4"/>

    <!-- Stage 1 — SOURCE: pass -->
    <rect x="8" y="83" width="20" height="6" fill="url(#l-deploy)" opacity="0.8"/>
    <rect x="8" y="83" width="20" height="6" fill="none" stroke="#1E8449" stroke-width="0.5" opacity="0.6"/>
    <rect x="10" y="85" width="6" height="1.5" fill="#1E8449" opacity="0.5"/>

    <!-- Stage 2 — BUILD: pass -->
    <rect x="36" y="83" width="24" height="6" fill="url(#l-deploy)" opacity="0.6"/>
    <rect x="36" y="83" width="24" height="6" fill="none" stroke="#1E8449" stroke-width="0.5" opacity="0.5"/>
    <rect x="38" y="85" width="10" height="1.5" fill="#1E8449" opacity="0.4"/>

    <!-- Stage 3 — TEST: warning -->
    <rect x="68" y="83" width="20" height="6" fill="#D68910" opacity="0.1"/>
    <rect x="68" y="83" width="20" height="6" fill="none" stroke="#D68910" stroke-width="0.5" opacity="0.5"/>
    <rect x="70" y="85" width="8" height="1.5" fill="#D68910" opacity="0.4"/>

    <!-- Stage 4 — DEPLOY: blocked indicator -->
    <rect x="100" y="83" width="12" height="6" fill="none" stroke="#243040" stroke-width="0.5"/>
    <rect x="102" y="85" width="6" height="1.5" fill="#3A4F61" opacity="0.3"/>

    <!-- Flow arrows between stages -->
    <polyline points="28,86 34,86" stroke="#1E8449" stroke-width="0.75" fill="none" opacity="0.6"/>
    <polyline points="60,86 66,86" stroke="#D68910" stroke-width="0.75" fill="none" opacity="0.5"/>
    <polyline points="88,86 98,86" stroke="#3A4F61" stroke-width="0.75" fill="none" opacity="0.4"/>

    <!-- ── Secrets management panel — bottom ─────────────────── -->
    <line x1="4" y1="96" x2="116" y2="96" stroke="#243040" stroke-width="0.75"/>
    <rect x="4" y="96" width="112" height="20" fill="#0D1117"/>

    <!-- Secrets header -->
    <rect x="10" y="100" width="16" height="1.5" fill="#4A8FBF" opacity="0.45"/>
    <!-- Lock icon simulation — small rectangle with bracket -->
    <rect x="100" y="98" width="6" height="8" fill="none" stroke="#4A8FBF" stroke-width="0.75" opacity="0.5"/>
    <polyline points="101,98 101,96 105,96 105,98" stroke="#4A8FBF" stroke-width="0.75" fill="none" opacity="0.5"/>

    <!-- Secret rows — redacted keys -->
    <rect x="10" y="104" width="8" height="1.5" fill="#3A4F61" opacity="0.5"/>
    <rect x="22" y="104" width="30" height="1.5" fill="#1A2230" opacity="0.8"/>
    <rect x="22" y="104" width="30" height="1.5" fill="none" stroke="#3A4F61" stroke-width="0.3" opacity="0.5"/>
    <rect x="56" y="104" width="6" height="1.5" fill="#1E8449" opacity="0.4"/>

    <rect x="10" y="108" width="8" height="1.5" fill="#3A4F61" opacity="0.4"/>
    <rect x="22" y="108" width="24" height="1.5" fill="#1A2230" opacity="0.8"/>
    <rect x="22" y="108" width="24" height="1.5" fill="none" stroke="#3A4F61" stroke-width="0.3" opacity="0.5"/>
    <rect x="50" y="108" width="6" height="1.5" fill="#1E8449" opacity="0.4"/>

    <rect x="10" y="112" width="8" height="1.5" fill="#3A4F61" opacity="0.3"/>
    <rect x="22" y="112" width="36" height="1.5" fill="#1A2230" opacity="0.8"/>
    <rect x="22" y="112" width="36" height="1.5" fill="none" stroke="#3A4F61" stroke-width="0.3" opacity="0.4"/>
    <rect x="62" y="112" width="6" height="1.5" fill="#D68910" opacity="0.3"/>

  </g>

  <!-- ── Outer accent corner — top right ────────────────────── -->
  <polyline points="96,4 112,4 112,20" stroke="#4A8FBF" stroke-width="1" opacity="0.6"/>

</svg>
