<svg xmlns="http://www.w3.org/2000/svg" viewBox="0 0 120 120" width="120" height="120" fill="none">
  <defs>
    <!-- Subtle depth gradient for background panel -->
    <linearGradient id="s-bg" x1="0" y1="0" x2="0" y2="1">
      <stop offset="0%" stop-color="#0D1117"/>
      <stop offset="100%" stop-color="#080B0F"/>
    </linearGradient>

    <!-- Sweep arc gradient — accent fading to transparent -->
    <linearGradient id="s-sweep" x1="1" y1="0" x2="0" y2="1">
      <stop offset="0%" stop-color="#4A8FBF" stop-opacity="0.55"/>
      <stop offset="100%" stop-color="#4A8FBF" stop-opacity="0"/>
    </linearGradient>

    <!-- Signal trace gradient -->
    <linearGradient id="s-trace" x1="0" y1="0" x2="1" y2="0">
      <stop offset="0%" stop-color="#4A8FBF" stop-opacity="0"/>
      <stop offset="40%" stop-color="#4A8FBF" stop-opacity="0.7"/>
      <stop offset="100%" stop-color="#4A8FBF" stop-opacity="0.15"/>
    </linearGradient>

    <!-- Clip to icon bounds -->
    <clipPath id="s-clip">
      <rect x="4" y="4" width="112" height="112"/>
    </clipPath>
  </defs>

  <!-- ── Outer frame ─────────────────────────────────────────── -->
  <rect x="4" y="4" width="112" height="112" fill="url(#s-bg)" stroke="#243040" stroke-width="1"/>

  <!-- Corner cut mark — top right -->
  <polyline points="96,4 112,4 112,20" stroke="#4A8FBF" stroke-width="1" opacity="0.6"/>
  <!-- Corner mark — bottom left -->
  <polyline points="24,116 4,116 4,100" stroke="#243040" stroke-width="1" opacity="0.5"/>

  <!-- ── Inner scan field (clipped) ─────────────────────────── -->
  <g clip-path="url(#s-clip)">

    <!-- Background grid — horizontal scan lines -->
    <line x1="4"  y1="28" x2="116" y2="28" stroke="#1A2230" stroke-width="0.5"/>
    <line x1="4"  y1="44" x2="116" y2="44" stroke="#1A2230" stroke-width="0.5"/>
    <line x1="4"  y1="60" x2="116" y2="60" stroke="#1A2230" stroke-width="0.5"/>
    <line x1="4"  y1="76" x2="116" y2="76" stroke="#1A2230" stroke-width="0.5"/>
    <line x1="4"  y1="92" x2="116" y2="92" stroke="#1A2230" stroke-width="0.5"/>

    <!-- Background grid — vertical divisions -->
    <line x1="26"  y1="4" x2="26"  y2="116" stroke="#1A2230" stroke-width="0.5"/>
    <line x1="48"  y1="4" x2="48"  y2="116" stroke="#1A2230" stroke-width="0.5"/>
    <line x1="70"  y1="4" x2="70"  y2="116" stroke="#1A2230" stroke-width="0.5"/>
    <line x1="92"  y1="4" x2="92"  y2="116" stroke="#1A2230" stroke-width="0.5"/>

    <!-- ── Radar sweep quadrant (origin: bottom-left corner of scan field) ── -->
    <!-- Origin at (4, 116) — sweep covers upper-right quadrant -->

    <!-- Sweep fill wedge — quarter circle arc -->
    <!-- Drawn as a pie slice from origin -->
    <path
      d="M 14 106
         L 14 22
         A 84 84 0 0 1 98 106
         Z"
      fill="url(#s-sweep)"
      opacity="0.18"
    />

    <!-- Sweep leading edge line -->
    <line x1="14" y1="106" x2="80" y2="28"
      stroke="#4A8FBF" stroke-width="1" opacity="0.55"/>

    <!-- Concentric range rings — quarter arcs from origin (14,106) -->
    <path d="M 14 78  A 28 28 0 0 1 42 106" stroke="#243040" stroke-width="0.75" fill="none"/>
    <path d="M 14 50  A 56 56 0 0 1 70 106" stroke="#243040" stroke-width="0.75" fill="none"/>
    <path d="M 14 22  A 84 84 0 0 1 98 106" stroke="#243040" stroke-width="0.75" fill="none"/>

    <!-- Range ring accent ticks -->
    <line x1="14" y1="78" x2="18" y2="78" stroke="#4A8FBF" stroke-width="0.75" opacity="0.5"/>
    <line x1="14" y1="50" x2="18" y2="50" stroke="#4A8FBF" stroke-width="0.75" opacity="0.5"/>
    <line x1="42" y1="106" x2="42" y2="102" stroke="#4A8FBF" stroke-width="0.75" opacity="0.5"/>
    <line x1="70" y1="106" x2="70" y2="102" stroke="#4A8FBF" stroke-width="0.75" opacity="0.5"/>

    <!-- ── Signal trace / waveform — horizontal ────────────────── -->
    <!-- Drawn along y=60, showing an anomaly spike -->
    <polyline
      points="4,60 20,60 26,60 30,54 34,67 38,57 42,60 54,60 58,60 60,44 62,60 66,60 92,60 116,60"
      stroke="url(#s-trace)" stroke-width="1.25" fill="none"
    />

    <!-- Spike highlight — the anomaly peak -->
    <line x1="60" y1="46" x2="60" y2="58" stroke="#4A8FBF" stroke-width="1" opacity="0.9"/>
    <!-- Anomaly marker — small square dot -->
    <rect x="58.5" y="43" width="3" height="3" fill="#4A8FBF" opacity="0.9"/>

    <!-- ── Threat classification markers ───────────────────────── -->

    <!-- Target 1 — critical, near sweep origin area -->
    <rect x="38" y="82" width="4" height="4" fill="none" stroke="#C0392B" stroke-width="1"/>
    <!-- Cross-hair lines for target 1 -->
    <line x1="40" y1="79" x2="40" y2="81" stroke="#C0392B" stroke-width="0.75" opacity="0.8"/>
    <line x1="43" y1="84" x2="45" y2="84" stroke="#C0392B" stroke-width="0.75" opacity="0.8"/>
    <!-- Blinking pulse ring -->
    <rect x="35" y="79" width="10" height="10" fill="none" stroke="#C0392B" stroke-width="0.5" opacity="0.4"/>

    <!-- Target 2 — warning, mid-range -->
    <rect x="64" y="50" width="4" height="4" fill="none" stroke="#D68910" stroke-width="1"/>
    <line x1="66" y1="47" x2="66" y2="49" stroke="#D68910" stroke-width="0.75" opacity="0.8"/>
    <line x1="69" y1="52" x2="71" y2="52" stroke="#D68910" stroke-width="0.75" opacity="0.8"/>

    <!-- Target 3 — pass, far range -->
    <rect x="84" y="76" width="3" height="3" fill="none" stroke="#1E8449" stroke-width="0.75"/>

    <!-- ── Header bar ─────────────────────────────────────────── -->
    <rect x="4" y="4" width="112" height="14" fill="#0D1117" opacity="0.95"/>
    <line x1="4" y1="18" x2="116" y2="18" stroke="#243040" stroke-width="0.75"/>

    <!-- Status dot — critical blinking indicator -->
    <rect x="10" y="9" width="4" height="4" fill="#C0392B"/>
    <!-- Label text simulation — small rects acting as text blocks -->
    <rect x="18" y="10" width="24" height="2" fill="#5A7184" opacity="0.6" rx="0"/>
    <rect x="46" y="10" width="14" height="2" fill="#3A4F61" opacity="0.5" rx="0"/>

    <!-- GC / SENTINEL label — top right -->
    <rect x="82" y="10" width="28" height="2" fill="#3A4F61" opacity="0.4" rx="0"/>

    <!-- ── Footer bar ─────────────────────────────────────────── -->
    <rect x="4" y="106" width="112" height="10" fill="#0D1117" opacity="0.9"/>
    <line x1="4" y1="106" x2="116" y2="106" stroke="#243040" stroke-width="0.75"/>

    <!-- Footer data readouts -->
    <rect x="10" y="109" width="18" height="1.5" fill="#3A4F61" opacity="0.5"/>
    <rect x="32" y="109" width="12" height="1.5" fill="#4A8FBF" opacity="0.4"/>
    <rect x="88" y="109" width="22" height="1.5" fill="#3A4F61" opacity="0.4"/>

    <!-- ── Origin anchor point ─────────────────────────────────── -->
    <rect x="12" y="104" width="4" height="4" fill="#4A8FBF" opacity="0.7"/>
    <line x1="14" y1="22"  x2="14" y2="104" stroke="#4A8FBF" stroke-width="0.5" opacity="0.3"/>
    <line x1="14" y1="106" x2="98" y2="106" stroke="#4A8FBF" stroke-width="0.5" opacity="0.3"/>

  </g>

  <!-- ── Outer accent corner — top right ────────────────────── -->
  <polyline points="96,4 112,4 112,20" stroke="#4A8FBF" stroke-width="1" opacity="0.6"/>

</svg>
