<svg xmlns="http://www.w3.org/2000/svg" viewBox="0 0 120 120" width="120" height="120" fill="none">
  <defs>
    <!-- Subtle depth gradient for background panel -->
    <linearGradient id="s-bg" x1="0" y1="0" x2="0" y2="1">
      <stop offset="0%" stop-color="#0D1117"/>
      <stop offset="100%" stop-color="#080B0F"/>
    </linearGradient>

    <!-- Sweep arc gradient — accent fading to transparent -->
    <linearGradient id="s-sweep" x1="1" y1="0" x2="0" y2="1">
      <stop offset="0%" stop-color="#4A8FBF" stop-opacity="0.45"/>
      <stop offset="100%" stop-color="#4A8FBF" stop-opacity="0"/>
    </linearGradient>

    <!-- Signal trace gradient — anomaly highlight -->
    <linearGradient id="s-trace" x1="0" y1="0" x2="1" y2="0">
      <stop offset="0%"   stop-color="#4A8FBF" stop-opacity="0"/>
      <stop offset="35%"  stop-color="#4A8FBF" stop-opacity="0.7"/>
      <stop offset="65%"  stop-color="#4A8FBF" stop-opacity="0.9"/>
      <stop offset="100%" stop-color="#4A8FBF" stop-opacity="0.15"/>
    </linearGradient>

    <!-- Check row alt background -->
    <linearGradient id="s-row-crit" x1="0" y1="0" x2="1" y2="0">
      <stop offset="0%"   stop-color="#C0392B" stop-opacity="0.12"/>
      <stop offset="100%" stop-color="#C0392B" stop-opacity="0"/>
    </linearGradient>

    <!-- Clip to icon bounds -->
    <clipPath id="s-clip">
      <rect x="4" y="4" width="112" height="112"/>
    </clipPath>
  </defs>

  <!-- ── Outer frame ─────────────────────────────────────────── -->
  <rect x="4" y="4" width="112" height="112" fill="url(#s-bg)" stroke="#243040" stroke-width="1"/>

  <!-- Corner cut mark — top right (accent) -->
  <polyline points="96,4 112,4 112,20" stroke="#4A8FBF" stroke-width="1" opacity="0.6"/>
  <!-- Corner mark — bottom left (dim) -->
  <polyline points="24,116 4,116 4,100" stroke="#243040" stroke-width="1" opacity="0.5"/>

  <!-- ── Inner scan field (clipped) ─────────────────────────── -->
  <g clip-path="url(#s-clip)">

    <!-- ── Header bar ─────────────────────────────────────────── -->
    <rect x="4" y="4" width="112" height="14" fill="#0D1117" opacity="0.98"/>
    <line x1="4" y1="18" x2="116" y2="18" stroke="#243040" stroke-width="0.75"/>

    <!-- Status dot — critical blinking indicator -->
    <rect x="10" y="9" width="4" height="4" fill="#C0392B"/>
    <!-- Header label text simulations -->
    <rect x="18" y="10" width="22" height="2" fill="#5A7184" opacity="0.6"/>
    <rect x="44" y="10" width="12" height="2" fill="#3A4F61" opacity="0.5"/>
    <!-- GC / SENTINEL right label -->
    <rect x="84" y="10" width="26" height="2" fill="#3A4F61" opacity="0.4"/>

    <!-- ── Background grid ────────────────────────────────────── -->
    <!-- Horizontal scan lines -->
    <line x1="4"   y1="30" x2="116" y2="30" stroke="#1A2230" stroke-width="0.5"/>
    <line x1="4"   y1="42" x2="116" y2="42" stroke="#1A2230" stroke-width="0.5"/>
    <line x1="4"   y1="54" x2="116" y2="54" stroke="#1A2230" stroke-width="0.5"/>
    <line x1="4"   y1="66" x2="116" y2="66" stroke="#1A2230" stroke-width="0.5"/>
    <line x1="4"   y1="78" x2="78"  y2="78" stroke="#1A2230" stroke-width="0.5"/>

    <!-- Vertical divisions -->
    <line x1="26"  y1="18" x2="26"  y2="78" stroke="#1A2230" stroke-width="0.5"/>
    <line x1="48"  y1="18" x2="48"  y2="78" stroke="#1A2230" stroke-width="0.5"/>
    <line x1="70"  y1="18" x2="70"  y2="78" stroke="#1A2230" stroke-width="0.5"/>

    <!-- ── Radar scan area (left ⅔ of icon, rows 18–78) ───────── -->
    <!-- Origin at (14, 72) — sweep covers upper-right quadrant -->

    <!-- Sweep fill wedge -->
    <path
      d="M 14 72
         L 14 24
         A 48 48 0 0 1 62 72
         Z"
      fill="url(#s-sweep)"
      opacity="0.22"
    />

    <!-- Sweep leading edge line — main beam -->
    <line x1="14" y1="72" x2="62" y2="24"
      stroke="#4A8FBF" stroke-width="1.25" opacity="0.6"/>

    <!-- Secondary ghost sweep line — trailing edge -->
    <line x1="14" y1="72" x2="68" y2="36"
      stroke="#4A8FBF" stroke-width="0.5" opacity="0.2"/>

    <!-- Concentric range rings — quarter arcs -->
    <path d="M 14 56  A 16 16 0 0 1 30 72" stroke="#243040" stroke-width="0.75" fill="none"/>
    <path d="M 14 40  A 32 32 0 0 1 46 72" stroke="#243040" stroke-width="0.75" fill="none"/>
    <path d="M 14 24  A 48 48 0 0 1 62 72" stroke="#243040" stroke-width="0.75" fill="none"/>

    <!-- Range ring tick marks — horizontal axis -->
    <line x1="14" y1="56" x2="18" y2="56" stroke="#4A8FBF" stroke-width="0.75" opacity="0.5"/>
    <line x1="14" y1="40" x2="18" y2="40" stroke="#4A8FBF" stroke-width="0.75" opacity="0.5"/>
    <line x1="14" y1="24" x2="18" y2="24" stroke="#4A8FBF" stroke-width="0.75" opacity="0.4"/>
    <!-- Vertical axis ticks -->
    <line x1="30" y1="72" x2="30" y2="68" stroke="#4A8FBF" stroke-width="0.75" opacity="0.5"/>
    <line x1="46" y1="72" x2="46" y2="68" stroke="#4A8FBF" stroke-width="0.75" opacity="0.5"/>
    <line x1="62" y1="72" x2="62" y2="68" stroke="#4A8FBF" stroke-width="0.75" opacity="0.4"/>

    <!-- ── Threat classification markers ───────────────────────── -->

    <!-- Target 1 — critical, near range -->
    <rect x="26" y="56" width="5" height="5" fill="none" stroke="#C0392B" stroke-width="1"/>
    <!-- Crosshair ticks -->
    <line x1="28.5" y1="53" x2="28.5" y2="55" stroke="#C0392B" stroke-width="0.75" opacity="0.85"/>
    <line x1="32"   y1="58.5" x2="34"   y2="58.5" stroke="#C0392B" stroke-width="0.75" opacity="0.85"/>
    <!-- Outer pulse ring — square -->
    <rect x="23" y="53" width="11" height="11" fill="none" stroke="#C0392B" stroke-width="0.5" opacity="0.35"/>
    <!-- Inner fill -->
    <rect x="27.5" y="57.5" width="2" height="2" fill="#C0392B" opacity="0.5"/>

    <!-- Target 2 — warning, mid range -->
    <rect x="40" y="36" width="4" height="4" fill="none" stroke="#D68910" stroke-width="0.9"/>
    <line x1="42" y1="33" x2="42" y2="35" stroke="#D68910" stroke-width="0.75" opacity="0.8"/>
    <line x1="45" y1="38" x2="47" y2="38" stroke="#D68910" stroke-width="0.75" opacity="0.8"/>

    <!-- Target 3 — pass, far range (cleared) -->
    <rect x="54" y="50" width="3" height="3" fill="none" stroke="#1E8449" stroke-width="0.75"/>

    <!-- ── Origin anchor point ─────────────────────────────────── -->
    <rect x="12" y="70" width="4" height="4" fill="#4A8FBF" opacity="0.75"/>
    <!-- Axis lines from origin -->
    <line x1="14" y1="24" x2="14" y2="70" stroke="#4A8FBF" stroke-width="0.5" opacity="0.25"/>
    <line x1="14" y1="72" x2="62" y2="72" stroke="#4A8FBF" stroke-width="0.5" opacity="0.25"/>

    <!-- ── Right panel divider ─────────────────────────────────── -->
    <line x1="78" y1="18" x2="78" y2="116" stroke="#243040" stroke-width="0.75"/>

    <!-- ── Right panel: check result rows ─────────────────────── -->
    <!-- Panel header -->
    <rect x="78" y="18" width="38" height="10" fill="#131920"/>
    <line x1="78" y1="28" x2="116" y2="28" stroke="#1A2230" stroke-width="0.75"/>
    <rect x="82" y="21.5" width="18" height="1.5" fill="#4A8FBF" opacity="0.45"/>

    <!-- Row 1 — DMARC: CRITICAL -->
    <rect x="78" y="28" width="38" height="12" fill="url(#s-row-crit)"/>
    <line x1="78" y1="40" x2="116" y2="40" stroke="#1A2230" stroke-width="0.5"/>
    <rect x="82" y="31" width="3" height="3" fill="#C0392B"/>
    <rect x="88" y="30" width="20" height="2" fill="#E8EDF2" opacity="0.5"/>
    <rect x="88" y="34" width="14" height="1.5" fill="#5A7184" opacity="0.3"/>
    <!-- CRITICAL badge -->
    <rect x="104" y="30" width="8" height="4" fill="none" stroke="#C0392B" stroke-width="0.5" opacity="0.7"/>
    <rect x="105" y="31" width="6" height="2" fill="#C0392B" opacity="0.35"/>

    <!-- Row 2 — SPF: PASS -->
    <line x1="78" y1="52" x2="116" y2="52" stroke="#1A2230" stroke-width="0.5"/>
    <rect x="82" y="43" width="3" height="3" fill="#1E8449"/>
    <rect x="88" y="42" width="16" height="2" fill="#E8EDF2" opacity="0.4"/>
    <rect x="88" y="46" width="12" height="1.5" fill="#5A7184" opacity="0.25"/>
    <rect x="104" y="42" width="8" height="4" fill="none" stroke="#1E8449" stroke-width="0.5" opacity="0.5"/>
    <rect x="105" y="43" width="6" height="2" fill="#1E8449" opacity="0.25"/>

    <!-- Row 3 — SSL: WARNING -->
    <line x1="78" y1="64" x2="116" y2="64" stroke="#1A2230" stroke-width="0.5"/>
    <rect x="82" y="55" width="3" height="3" fill="#D68910"/>
    <rect x="88" y="54" width="18" height="2" fill="#E8EDF2" opacity="0.35"/>
    <rect x="88" y="58" width="10" height="1.5" fill="#5A7184" opacity="0.22"/>
    <rect x="104" y="54" width="8" height="4" fill="none" stroke="#D68910" stroke-width="0.5" opacity="0.5"/>
    <rect x="105" y="55" width="6" height="2" fill="#D68910" opacity="0.25"/>

    <!-- Row 4 — DKIM: PASS -->
    <line x1="78" y1="76" x2="116" y2="76" stroke="#1A2230" stroke-width="0.5"/>
    <rect x="82" y="67" width="3" height="3" fill="#1E8449"/>
    <rect x="88" y="66" width="14" height="2" fill="#E8EDF2" opacity="0.3"/>
    <rect x="88" y="70" width="16" height="1.5" fill="#5A7184" opacity="0.2"/>
    <rect x="104" y="66" width="8" height="4" fill="none" stroke="#1E8449" stroke-width="0.5" opacity="0.4"/>
    <rect x="105" y="67" width="6" height="2" fill="#1E8449" opacity="0.2"/>

    <!-- ── Signal trace / waveform — spans full width at y≈78 ─── -->
    <line x1="4" y1="78" x2="116" y2="78" stroke="#243040" stroke-width="0.75"/>
    <rect x="4" y="78" width="112" height="28" fill="#0D1117"/>

    <!-- Waveform with anomaly spike -->
    <polyline
      points="4,90 16,90 20,90 24,85 27,94 31,87 34,90 44,90 48,90 50,76 52,90 56,90 72,90 76,90 80,84 84,97 88,88 92,90 116,90"
      stroke="url(#s-trace)" stroke-width="1.25" fill="none"
    />

    <!-- Spike highlight — the critical anomaly -->
    <line x1="50" y1="78" x2="50" y2="89" stroke="#C0392B" stroke-width="1" opacity="0.85"/>
    <!-- Anomaly marker — square dot at peak -->
    <rect x="48.5" y="75" width="3" height="3" fill="#C0392B" opacity="0.9"/>
    <!-- Outer pulse ring -->
    <rect x="46" y="73" width="8" height="7" fill="none" stroke="#C0392B" stroke-width="0.5" opacity="0.35"/>

    <!-- Warning spike marker -->
    <line x1="80" y1="84" x2="80" y2="89" stroke="#D68910" stroke-width="0.75" opacity="0.7"/>
    <rect x="79" y="82" width="2.5" height="2.5" fill="#D68910" opacity="0.6"/>

    <!-- Waveform row label blocks -->
    <rect x="8"  y="104" width="12" height="1.5" fill="#4A8FBF" opacity="0.4"/>
    <rect x="24" y="104" width="18" height="1.5" fill="#3A4F61" opacity="0.3"/>
    <rect x="60" y="104" width="20" height="1.5" fill="#3A4F61" opacity="0.25"/>

    <!-- ── Footer bar ─────────────────────────────────────────── -->
    <rect x="4" y="106" width="112" height="10" fill="#0D1117" opacity="0.95"/>
    <line x1="4" y1="106" x2="116" y2="106" stroke="#243040" stroke-width="0.75"/>

    <!-- Footer data readouts -->
    <rect x="10" y="109" width="16" height="1.5" fill="#3A4F61" opacity="0.5"/>
    <rect x="30" y="109" width="8"  height="1.5" fill="#4A8FBF" opacity="0.4"/>
    <rect x="42" y="109" width="22" height="1.5" fill="#3A4F61" opacity="0.35"/>
    <rect x="88" y="109" width="22" height="1.5" fill="#3A4F61" opacity="0.35"/>

  </g>

  <!-- ── Outer accent corner — top right (redrawn over clip) ── -->
  <polyline points="96,4 112,4 112,20" stroke="#4A8FBF" stroke-width="1" opacity="0.6"/>

</svg>
